<svg xmlns="http://www.w3.org/2000/svg" id="Layer_1" x="0" y="0" version="1.1" viewBox="0 0 180 62" width="180" height="62" xml:space="preserve">
  <style>
    .st0{fill:#004B91}
  </style>
  <path d="M34 46.4h-.1c-.2 0-.4 0-.5.1v.3c.1.2.1.5.1.6-.1.1-.1.1-.3.2H33l-.1.1v.1l.1.2v.1h.1s.2-.1.3-.1h.1c.1 0 .3 0 .4-.2l.1-.2c0-.2.1-.5.1-.6.1 0 .2.1.4.1 0 0 .1 0 .1-.1.1.1.2.2.5.2h.2c.1.1 0 .3-.1.5 0 0-.1.1 0 .2 0 0 .1.1.2.1s.4 0 .4-.2v-.1c0-.1 0-.2.1-.3.2-.2.2-.3.2-.3-.1-.1-.3-.2-.3-.4 0-.1 0-.1.1-.2.5-.3.7-.5.3-1.2-.2-.4-.1-.7 0-.8H36.5s.1-.2.3-.2h.2v-.2h-.2c-.1 0-.2 0-.3-.1-.1-.1-.3 0-.5.1-.1.1-.2.2-.3.4 0 .1 0 .6.2.8.1.1.1.2.1.3 0 .1 0 .2-.1.2h-.1s-.2-.1-.3 0c-.1 0-.2-.1-.3-.1l-.1-.1c-.1-.1-.3-.3-.3-.4v-.1s-.1-.1-.1-.2.1-.2.1-.2c.1 0 .1-.1.1-.1s0-.1-.1-.1v-.1-.1s0-.1.1-.1h.3s-.3-.1-.4-.2v-.1-.1c0-.1-.1-.2-.3-.3 0 0-.3-.1-.4-.1-.1 0-.1 0-.2.1h-.1c-.2 0-.4 0-.5.1H33h-.1v-.1-.1h-.1s-.1.1 0 .2c0 0 .1.1.2.1h.3v.4c.1.1.2.1.3.1 0 0 .1.1.1.2v.2c-.1.2-.6.1-.7.1h-.1c-.3-.1-.8-.4-1-.1-.1.1-.1.2-.1.3 0 .1.1.1.1.1h.1v.2l.9.2v.1c-.1.2-.6.5-.7.5-.1 0-.2 0-.3.1-.1.1-.1.2-.1.3v.1l.1-.1s.1-.1.2-.1c.1.1.1.1.3 0 .1 0 .2-.1.2-.1.2.1.4 0 .7-.4.4.2.5.5.7.6zM73.5 2.5s-.4 1-1 2.1-1.1 1.9-2.8 4.1c-1.1 1.4-2.6 3-2.8 2.8-.1-.1-.1-.2.7-1 .3-.3 1.7-1.9 1.9-2.1-.4-.4-.7-.1-1 0-.2.1-1.5 1-2.2 2.5-.3.9-.5 1-.7 1.2-.2.1-.3.2-.6 1-.2.5-1.2 1.7-1.2 1.7-.7.8-1.3 1.1-1.5 1.2-.2.2-.2-.1.1-.3.2-.2 1.6-1.2 2.3-2.8l.4-.8c-.2-.1-.4-.1-.5-.1-.6.1-.7.5-1.1 1-.6.8-1.1 1.3-2.5 2.1-1.5.8-2.2 2.2-2.3 2.4-1.9.6-3.1.4-3.9 2.1-.6 1.9-.5 4.1-.4 4.7-1.8.6-3.2 2.4-3.4 3.2-.9-.1-1.3 0-1.5.2v-3.1h-24v3.2c-.2-.2-.6-.4-1.6-.2-.2-.8-1.6-2.6-3.4-3.2.1-.6.2-2.7-.4-4.7-.8-1.7-2-1.6-3.9-2.1-.1-.2-.8-1.7-2.3-2.4-1.5-.8-2-1.3-2.5-2.1-.4-.6-.5-1-1.1-1-.1 0-.3 0-.4.1l.4.8c.7 1.6 2.1 2.6 2.3 2.8.2.2.3.5.1.3-.2-.1-.8-.4-1.5-1.2 0 0-1-1.2-1.2-1.7-.3-.7-.5-.9-.6-1-.2-.1-.4-.3-.7-1.2-.7-1.5-2-2.4-2.2-2.5-.5-.3-.8-.5-1.2-.2.2.2 1.7 1.8 1.9 2.1.7.8.8.9.7 1-.3.3-1.7-1.4-2.8-2.8-1.7-2.2-2.2-3-2.8-4.1-.6-1.1-1-2.1-1-2.1-.5.2-.2 1 .4 2.2 0 0 1.6 4 2.8 5.1 1.2 1 1.8 1.3 3.8 3.8.4.6.8 1 .7 1.1-.2.1-.8-.6-1.3-1.2-.8-.9-.1-.2-1.3-1.4-1.4-1.3-1.8-1.3-2.6-2.2C3 8.8 2.2 7.1 2 6.5c-.4.2-.2.8-.1 1.3.2.6.8 2.6 4.1 5.6.3.3.6.5.8.7.2.2.2.4-.1.2-.4-.2-2.4-1.9-3-2.8 0 0-.7.3.1 1.1.4.6 1 1.1 1.7 1.7 1 .9 1.8 1.7 3.9 2.5 1.2.6 4.6 1.5 6.2 2 .3.1.5.5.3.4-1.1-.3-6.5-1.3-9.1-3.4-.6-.5-1.4-1-2.4-2.1-.2.1-.7.3.7 1.9 1.4 1.7 2.6 2.2 3.4 2.6 1.7.9 5.4 1.9 7.2 2.2.3.1.6.4.3.4-1.4-.3-6.3-.8-9.6-3.3-.6-.5-1.3-1.2-1.3-1.2-1.1.6 0 1.7 1 2.6 2.8 2.3 8.7 3.1 9.4 3.2.7 0 .8.4.4.4-1.6 0-6-.8-8.1-1.9-.7-.3-2-1.3-2-1.3-.2.3-.5.8.9 1.9.9.7 1.6 1.1 3.1 1.6 1.9.6 5.2 1 6 .9.8 0 .8.4.5.4-.8 0-4.2 0-6.8-.8-1.2-.4-2.5-1.2-2.5-1.2s-.8.7.6 1.7c.9.6 1.9 1 3.2 1.2 1.7.3 4.1.4 5.4.2.7-.1 1 .4.6.4-2 .1-5.2.6-8.9-1-.1.1-.6 1 .9 1.7 0 0 .9.4 2.3.6 2.4.2 3.6.1 6-.3.2 0 1 .2.1.4-5.6 1.4-8.5-.1-8.5-.1-.3.6-.1 1.1 1 1.6 0 0 2 .6 4.7.2.9-.2 1.9-.4 3.1-.8.5-.2 1.2 0 .7.2-5.5 2.2-8.3.9-8.3.9-.1.3-.2 1.1 1 1.5.5.2 1.2.2 2.3.1 1.9-.1 5.4-1.8 5.7-1.9.3-.1.8.1.4.3-3.4 1.7-5.7 2.5-8.1 2.2 0 0-.3 1.2 1.3 1.4 1 .1 1.9 0 2.7-.3 1.3-.4 2.6-1.3 4.3-2.5.3-.2.9-.2.6.1-2.7 2-4.7 3.5-7.5 3.5.2.8.4 1.2 1.8 1.3.7 0 1.4-.3 2.3-.8 1.9-1.1 3.3-2.6 3.9-3.2.2-.3.7-.3.5.1-3.6 4.4-6.1 4.5-6.4 4.6.2 1.2 1.8 1.1 2.5.8.7-.2 1.2-.6 1.6-1 1.1-.9 2.4-3 3-4.1.1-.2.5-.3.4.1-2.8 5.5-4.2 5.2-4.8 5.7.5.7 1 .9 2.1.5.3-.1.7-.3 1.5-1.2 1.3-1.8 2.1-4.3 2.3-4.7 0-.2.5-.3.4.1-1.3 5-3.4 6.4-3.4 6.4.3.3 1.4.7 2.1.2.5-.4 2-3.1 2.4-6.5 0-.3.4-.3.4.1-.5 4.9-2.1 6.7-2.1 6.7.6.4 1.5.6 2.2-.3.2-.2.3-.5.4-.8v4.1c-.2-.3-.5-.6-.8-.5-.1.1-.3.1-.4 0-.1-.1-.2-.2-.2-.3-.1-.4-.4-.4-.6-.4v-.1c0-.2-.1-.4-.4-.5H23c0-.1-.1-.2-.2-.3h-.2c0-.1-.1-.3-.3-.3-.2 0-.4.1-.6.4h-.5s-.7-.3-.9.2c-.1.2-.3.2-.5.3-.2 0-.3.1-.4.2-.4-.3-.4-.1-.4 0-.2.1-.5.2-.7.7-.1.2-.1.3 0 .4-.1 0-.5.2-.6.5-.1.4.1.6.2.7l.1.1c0 .1-.1.2-.1.5 0 .2.2.2.3.3.3.1.4.7.3.9-.1.2-.1.4 0 .5.1.1.3.2.5.1.2 0 .5 0 .6.2.1.2.2.4.4.5.2 0 .4-.3.4-.3s0-.1.1-.1c0 .1.1.1.2.2.4.6.4.7.4 1 0 .1 0 .3-.1.4-.1.1-.1.2-.3.3l-.6.6c-.5.5-1.1 1.2-1.4 1.3l-.2.1c-.4.1-.8.2-1.3.3h-.3c-.8 0-1.6 0-1.9.2-.1-.1-.3-.2-.5-.1-.3 0-.6-.1-.8-.1h-.1c-.4-.1-.7-.1-.9 0v.1c-.2 0-.4 0-.4.1v.2c-.2.1-.6.4-.5.9 0 0 0 .1.1.1h.1s.3-.3.7-.3c.2.1.5 0 .6 0l.1.1c.1.1.5.1.7-.1.1-.1.7-.1 1.3-.1-.2.1-.3.2-.3.2H14.2c-.1.1-.2.2-.2.4v.1c-.1.1-.3.3-.3.6 0 .2.1.3.3.5h.1l.1-.1s0-.5.3-.6c0 0 0 .1.1.1s.1 0 .1-.1c0 0 0-.2.2-.2h.2c.2 0 .3-.1.4 0-.2.1-.3.1-.3.1h-.1c-.1 0-.1.1-.1.1s0 .1.1.1.2 0 .8-.4c.5-.4.9-.4 1-.4-.4.3-1 .6-1.3.6 0 0-.1 0-.1.1v.1c-.2.1-.5.2-.5.6.1.4.5.7.5.7h.1v-.1s-.1-.1-.1-.3c0-.1.1-.2.3-.3.1 0 .3 0 .4-.2l.4-.2c.2-.1.4-.1 1-.6.9-.8 2.6-1 3.1-.7.2.1.3.2.4.3.1.1.1.1.4.1.2 0 .3.1.3.2.1.1.2.2.4.2 0 0 .1 0 .1-.1.1.1.3.2.3.4-.1.3-.3.3-.4.3l-.1.1c0 .1 0 .1.1.1 0 0 .5.1.8-.4.1-.2.2-.4.1-.6-.1-.2-.2-.4-.3-.5v-.1c0-.1-.2-.3-.4-.2H22c-.1-.1-.2-.2-.6-.2h-.2c0-.1-.2-.2-.5-.3-.1-.1-.2-.1-.2-.2v-.1h-.2c0-.2.2-.7 1.3-1.3 1.3-.6 1.9-1 1.9-1.4v-.1c0-.2-.1-.3-.2-.5-.5-.5-.8-1.1-.9-1.4 0 .1.1.1.1.2.1.2.1.3.3.4.1.1.5.1.7 0 .2-.1.5-.3.5-.9h.1l.1.1c.2.1.6.1 1.1-.9 0 .8.3 2.6 1.4 3.8.8.9 2 1.3 3.4 1.3H32.9c-.5-.1-1-.2-1.5-.2v-5.8h5.7v7.7c-.5-.4-1.9-1.3-4.2-1.7h-2.6.1s-1.3 1.8-1.9 2.7c-1 1.5-1.9 2.7-1.4 3.6.4.6 1.2-.7 1.9-2 1-1.6 1.4-2.3 2.4-4 .1-.2.3-.1.2.1-.8 1.6-1.4 2.4-2.2 4.1-1.1 2-1.6 2.9-1.1 3.4.6.7 1.1-.3 1.9-1.9.5-1.1.8-1.8 2.6-5.5.1-.1.3 0 .2.1-1.3 3.1-1.6 3.7-2 4.6-.8 2-1.7 3.8-.8 4.5.6.5 1.2-1.3 2.1-3.9.4-1.2 1.1-3.1 1.8-4.9 0-.1.3-.1.2 0-.3 1.1-1.4 4.3-1.8 5.5-.7 2.2-1.3 4-.4 4.5.7.3 1-.6 1.4-2.2.6-2.5 1.5-6 1.8-7.2 0-.1.2-.1.2 0-.5 2.3-1 4.9-1.4 6.9-.3 1.4-.8 3.1.3 3.4.5.1.9-.3 1.2-2.2.2-2 .3-2.7.9-7.6 0-.1.2-.2.2 0-.1 1.9-.4 5.7-.4 8.1 0 1.5.5 1.9 1 1.8v-9.8V61c.5 0 1-.3 1-1.8 0-2.4-.3-6.2-.4-8.1 0-.2.2-.1.2 0 .6 4.9.7 5.6.9 7.6.2 1.9.7 2.3 1.2 2.2 1.1-.3.6-2 .3-3.4-.4-1.9-.9-4.6-1.4-6.9 0-.2.2-.1.2 0 .3 1.2 1.2 4.7 1.8 7.2.4 1.6.7 2.5 1.4 2.2 1-.5.3-2.3-.4-4.5-.4-1.2-1.5-4.5-1.8-5.5 0-.1.2-.1.2 0 .6 1.8 1.3 3.7 1.8 4.9.9 2.6 1.5 4.4 2.1 3.9.9-.7 0-2.5-.8-4.5-.4-.9-.7-1.5-2-4.6-.1-.1.1-.3.2-.1 1.7 3.7 2.1 4.4 2.6 5.5.8 1.7 1.3 2.7 1.9 1.9.5-.5-.1-1.4-1.1-3.4-.9-1.7-1.4-2.6-2.2-4.1-.1-.2.1-.3.2-.1 1 1.6 1.4 2.4 2.4 4 .7 1.2 1.5 2.6 1.9 2 .4-.9-.4-2.1-1.4-3.6-.6-1-1.9-2.7-1.9-2.7h-2.4c-.2 0-.3.1-.5.1l-.1-.1h-2.1l.9.5c-.4.1-.7.3-1 .4l-.5-.9h-.8.8l-.5-.8.9.5H41l-1.2-2.3 3.5 2c-.6 0-1.2.1-1.7.2h3.1c1.4 0 2.5-.4 3.4-1.3 1-1 1.4-2.3 1.4-3.7.5.8.8.9 1.1.8l.1-.1h.1c.1.5.3.8.5.9.3.1.6.1.7 0 .1-.1.2-.2.3-.4 0-.1.1-.1.1-.2-.1.3-.4.9-.9 1.4-.2.2-.2.3-.2.5v.1c.1.4.7.8 1.9 1.4 1.2.6 1.3 1.1 1.3 1.3h-.2v.1l-.2.2c-.4.1-.5.2-.5.3h-.2c-.4 0-.5.1-.6.2l-.1.1c-.1.1-.2.1-.3 0h-.1c-.2 0-.4.1-.4.2v.1c-.1.1-.3.3-.3.5-.1.2 0 .4.1.6.3.4.8.4.8.4l.1-.1c0-.1 0-.1-.1-.1 0 0-.3-.1-.4-.3-.1-.2.2-.3.3-.4l.1.1c.2.1.3-.1.4-.2.1-.1.2-.2.3-.2.3 0 .3 0 .4-.1.1 0 .1-.1.4-.3.5-.3 2.2-.1 3.1.7.6.5.8.5 1 .6.1 0 .2.1.4.2.2.2.3.2.4.2.2.1.3.2.3.3 0 .2-.1.3-.1.3v.1h.1s.4-.3.5-.7c.1-.3-.3-.5-.5-.6v-.1l-.1-.1c-.4 0-.9-.3-1.3-.6.2 0 .5 0 1 .4.6.4.8.4.8.4.1 0 .1-.1.1-.1 0-.1 0-.1-.1-.1h-.1s-.1 0-.3-.1c.1-.1.1-.1.4 0h.2c.1 0 .2.2.2.2l.1.1s.1 0 .1-.1c.3.1.3.6.3.6s0 .1.1.1h.1c.2-.1.3-.3.3-.5 0-.3-.2-.5-.3-.6V51c0-.1-.1-.3-.3-.3H59.5s-.2-.1-.3-.2c.6 0 1.2 0 1.3.1.2.2.6.1.7.1l.1-.1c.1 0 .4.1.6 0 .4 0 .7.3.7.3h.1s.1 0 .1-.1c.1-.5-.3-.8-.5-.9v-.1-.1c-.1-.1-.3-.1-.4-.1v-.1c-.1-.1-.4-.1-.9 0h-.1c-.2.1-.5.2-.8.1-.3-.1-.4 0-.5.1-.3-.2-1.1-.2-1.9-.2h-.3c-.5 0-.9-.1-1.3-.3l-.1-.1c-.3-.1-.9-.8-1.4-1.3l-.6-.6c-.2-.1-.2-.3-.3-.3-.1-.1-.1-.1-.1-.3 0-.2 0-.7.4-1.2l.2-.2c0 .1.1.1.1.1s.4.8.8-.1c.1-.2.5-.3.7-.3.2 0 .4 0 .5-.1.1-.1.1-.3 0-.5s0-.7.3-.9c.1-.1.2 0 .3-.2 0-.2-.1-.5-.1-.5l.1-.1c.1-.1.3-.3.2-.7-.1-.4-.4-.5-.6-.5.1-.1 0-.3 0-.4-.2-.5-.5-.7-.7-.7.1-.1 0-.3-.1-.4-.1-.1-.3-.2-.4-.2-.2-.1-.4-.1-.5-.3-.2-.5-.9-.2-.9-.2-.1-.1-.3-.1-.5 0-.2-.3-.4-.5-.6-.4-.2 0-.3.2-.3.3h-.2c-.1 0-.2.1-.2.3h-.3c-.3 0-.4.3-.4.5v.1c-.2 0-.5 0-.6.4 0 .1-.1.2-.2.3-.1.1-.2.1-.4 0-.3-.1-.6.1-.8.4v-2.9-.9l.3.6c.7.9 1.7.7 2.2.3 0 0-1.6-1.8-2.1-6.7 0-.4.4-.4.4-.1.3 3.4 1.9 6.1 2.4 6.5.7.6 1.8.1 2.1-.2 0 0-2.2-1.4-3.4-6.4-.1-.4.3-.3.4-.1.1.4 1 3 2.3 4.7.7.9 1.2 1.1 1.5 1.2 1.1.5 1.6.3 2.1-.5-.6-.5-2-.2-4.8-5.7-.2-.4.2-.3.4-.1.7 1.2 2 3.2 3 4.1.4.3.9.7 1.6 1 .7.2 2.3.4 2.5-.8-.3-.1-2.8-.2-6.4-4.6-.2-.3.3-.4.5-.1.6.6 2 2.1 3.9 3.2.8.5 1.6.7 2.3.8 1.4 0 1.6-.4 1.8-1.3-2.8 0-4.8-1.5-7.5-3.5-.3-.2.3-.3.6-.1 1.8 1.2 3.1 2.1 4.3 2.5.8.3 1.8.4 2.7.3 1.6-.2 1.3-1.4 1.3-1.4-2.4.3-4.7-.5-8.1-2.2-.4-.2.1-.4.4-.3.3.1 3.7 1.8 5.7 1.9 1.1.1 1.8 0 2.3-.1 1.2-.4 1.1-1.2 1-1.5 0 0-2.8 1.3-8.3-.9-.5-.2.2-.4.7-.2 1.2.4 2.2.6 3.1.8 2.8.4 4.7-.2 4.7-.2 1.1-.4 1.3-1 1-1.6 0 0-3 1.5-8.5.1-.9-.2 0-.4.1-.4 2.4.4 3.7.5 6 .3 1.4-.2 2.3-.6 2.3-.6 1.4-.8 1-1.6.9-1.7-3.8 1.6-6.9 1.2-8.9 1-.4 0-.1-.4.6-.4 1.3.1 3.7.1 5.4-.2 1.3-.2 2.3-.6 3.2-1.2 1.5-1 .6-1.7.6-1.7s-1.3.8-2.5 1.2c-2.6.8-6 .8-6.8.8-.3 0-.3-.4.5-.4s4-.3 6-.9c1.5-.5 2.2-.9 3.1-1.6 1.4-1 1.1-1.6.9-1.9 0 0-1.3 1.1-2 1.3-2.1 1.1-6.5 1.9-8.1 1.9-.4 0-.3-.4.4-.4.7-.1 6.7-.8 9.4-3.2 1-.8 2.1-2 1.2-2.4 0 0-.7.8-1.3 1.2-3.3 2.5-8.2 3-9.6 3.3-.3 0 0-.3.3-.4 1.9-.3 5.5-1.3 7.2-2.2.8-.4 2-.9 3.4-2.6 1.4-1.6.9-1.8.7-1.9-1 1.2-1.8 1.7-2.4 2.1-2.6 2.1-8 3.1-9.1 3.4-.3.1 0-.3.3-.4 1.5-.5 5-1.5 6.2-2 2.1-.9 2.9-1.6 3.9-2.5.7-.6 1.3-1.1 1.7-1.7.7-.9.1-1.1.1-1.1-.6.9-2.6 2.6-3 2.8-.3.1-.3-.1-.1-.2.2-.2.4-.4.8-.7 3.4-3 4-5 4.1-5.6.1-.5.4-1.1-.1-1.3-.2.6-1 2.4-1.8 3.3-.8.9-1.2 1-2.5 2.4-1.1 1.1-.5.5-1.3 1.4-.5.6-1.1 1.4-1.3 1.2-.2-.1.2-.6.7-1.1 2-2.4 2.6-2.7 3.8-3.8 1.2-1.1 2.8-5.1 2.8-5.1.1-1.3.4-2-.1-2.2zM31.9 38.6c.2-.3.7 0 1 .1h.1c.2.1.6.1.7-.1v-.2c0-.1 0-.2-.1-.2s-.2 0-.3-.1V38v-.2-.1H33c-.1 0-.2-.1-.2-.1v-.2s.1-.1.1 0c0 0 .1.1 0 .1v.1h.4c.1-.1.2-.1.5-.1h.1s.1-.1.2-.1.3.1.4.1c.1.1.2.1.3.3v.2c.1 0 .4.2.4.2h-.3c-.1 0-.1.1-.1.1v.2c.1 0 .1.1.1.1s0 .1-.1.1c0 0-.1.1-.1.2l.1.2v.1c0 .2.2.4.3.4l.1.1c.1.1.2.2.3.1h.4s.1-.1.1-.2 0-.3-.1-.3c-.3-.2-.2-.7-.2-.8 0-.1.1-.3.3-.4.2-.1.4-.1.5-.1.1 0 .2.1.3.1h.2v.2h-.2c-.2 0-.3.2-.3.2h-.1-.1c-.1.1-.3.4 0 .8.4.7.2.9-.3 1.2-.1.1-.1.1-.1.2 0 .2.2.3.3.4 0 0 0 .2-.2.3-.1.1-.1.2-.1.3v.1c0 .1-.3.2-.4.2-.1 0-.1 0-.2-.1s0-.2 0-.2c.1-.1.2-.4.1-.5 0-.1-.1-.1-.2 0-.2 0-.4 0-.5-.2l-.1.1c-.1.1-.3 0-.4-.1 0 .1-.1.4-.1.6l-.1.2c-.1.2-.3.2-.4.2h-.1c-.1 0-.3.1-.3.1h-.1V42c0-.1 0-.2-.1-.2v-.1l.1-.1h.2c.1 0 .2-.1.3-.2.1-.2 0-.4-.1-.6-.1-.1-.1-.2 0-.3.1-.1.3-.1.5-.1h.1c-.2-.1-.3-.4-.4-.6-.3.4-.5.5-.7.4 0 0-.1.1-.2.1h-.4c-.1 0-.2 0-.2.1l-.2.1v-.1c0-.1 0-.2.1-.3.1-.1.2-.1.3-.1.1 0 .5-.2.7-.5v-.1l-.9-.2v-.1-.1h-.1s-.1 0-.1-.1c-.2 0-.2-.1-.1-.3zm.5-2l-.8-.5-1.9-3.6 3.6 2.1 1.1 2h-2zm-3.2 0L28 34.3l3.5 2 .2.3h-2.5zm-3.5-3.8v-2.2l1.7 3.1-1.7-.9zm1.6 3.8h-.9l-.3-.7 1.2.7zm-1.6-9.2l1.4.8 2 3.8-3.4-2v-2.6zm5.5 15.2h-5.5V37h5.5v5.6zm-5.1 2c.2-.3.5 0 .8.1h.1c.2.1.6.1.7-.1v-.2c0-.1 0-.2-.1-.2s-.2 0-.3-.1V44v-.2-.1H27c-.1 0-.2-.1-.2-.1v-.2h.1s.1.1 0 .1v.1h.4c.1-.1.2-.1.5-.1h.1s.1-.1.2-.1.3.1.4.1c.1.1.2.1.3.3v.2c.1 0 .4.2.4.2h-.3c-.1 0-.1.1-.1.1v.2c.1 0 .1.1.1.1s0 .1-.1.1c0 0-.1.1-.1.2l.1.2v.1c0 .2.2.4.3.4l.1.1c.1.1.2.2.3.1h.4s.1-.1.1-.2 0-.3-.1-.3c-.3-.2-.2-.7-.2-.8 0-.1.1-.3.3-.4.2-.1.4-.1.5-.1.1 0 .2.1.3.1h.2v.2h-.2c-.2 0-.3.2-.3.2h-.2-.1c-.1.1-.3.4 0 .8.4.7.2.9-.3 1.2-.1.1-.1.1-.1.2 0 .2.2.3.3.4 0 0 0 .2-.2.3-.1.1-.1.2-.1.3v.1c0 .1-.3.2-.4.2-.1 0-.1 0-.2-.1s0-.2 0-.2c.1-.1.2-.4.1-.5 0-.1-.1-.1-.2 0-.2 0-.4 0-.5-.2l-.1.1c-.1.1-.3 0-.4-.1 0 .1.1.2.1.4l-.1.2c-.1.2-.3.1-.4.1h-.4-.1v-.1c0-.1-.1-.1-.1-.1v-.3l.1-.1h.2c.3 0 .2-.1.3-.2.1-.2-.2 0-.3-.2-.1-.1-.1-.2 0-.3.1-.1.3-.1.5-.1h.1c-.2-.1-.3-.4-.4-.6-.3.4-.5.3-.7.2 0 0-.1-.1 0 0h-.3c-.1 0-.2 0-.2.1l-.1.1V46c0-.1 0-.2.1-.3.1-.1.2-.1.3-.1.1 0 .3 0 .4-.3v-.1l-.6-.2v-.1-.1h-.1s-.1 0-.1-.1c-.2.1-.2 0-.2-.1zm.2-19.6l2.6 1.5 1.9 3.7-3.6-2.1-1.6-2.9V25h.7zm4.6 0l1.8 3.4-3.6-2.1-.7-1.3h2.5zm3.7 1.7L31.5 25h2.1l1 1.7zm2.5 4.2l-2-3.7 2 1.1v2.6zm0 2.8l-1.9-1.1-2-3.7 3.6 2.1.2.4v2.3h.1zm0 2.9l-3.7-2.1-2-3.7 3.7 2.1 2 3.7zm11.5 9.3l-1-.6-2-3.6 3.4 2c0 .5-.1 1.3-.4 2.2zm-6.7-12c0-.1 0-.3-.1-.3-.3-.2-.2-.7-.2-.8 0-.1.1-.3.3-.4.2-.1.4-.1.5-.1.1 0 .2.1.3.1h.2v.2h-.2c-.2 0-.3.2-.3.2h-.1-.1c-.1.1-.3.4 0 .8.4.7.2.9-.3 1.2-.1.1-.1.1-.1.2 0 .2.2.3.3.4 0 0 0 .2-.2.3-.1.1-.1.2-.1.3v.1c0 .1-.3.2-.4.2-.1 0-.1 0-.2-.1s0-.2 0-.2c.1-.1.2-.4.1-.5 0-.1-.1-.1-.2 0-.2 0-.4 0-.5-.2l-.1.1c-.1.1-.3 0-.4-.1 0 .1-.1.4-.1.6l-.1.1c-.1.2-.3.2-.4.2h-.1c-.1 0-.3.1-.3.1H39v-.1c0-.1 0-.2-.1-.2v-.1l.1-.1h.2c.1 0 .2-.1.3-.2.1-.2 0-.4-.1-.6-.1-.1-.1-.2 0-.3.1-.1.3-.1.5-.1h.1c-.2-.1-.3-.4-.4-.6-.3.4-.5.5-.7.4 0 0-.1.1-.2.1h-.3c-.1 0-.2 0-.2.1l-.2-.1v-.1c0-.1 0-.2.1-.3.1-.1.2-.1.3-.1.1 0 .5-.2.7-.5v-.1l-.9-.2v-.1-.1h-.1s-.1 0-.1-.1 0-.2.1-.3c.2-.3.7 0 1 .1h.1c.2.1.6.1.7-.1v-.2c0-.1 0-.2-.1-.2s-.2 0-.3-.1V32v-.2-.1h-.3c-.1 0-.2-.1-.2-.1v-.2s.1-.1.1 0c0 0 .1.1 0 .1v.1h.4c.1-.1.2-.1.5-.1h.1s.1-.1.2-.1.3.1.4.1l.3.3v.2c.1 0 .4.2.4.2h-.3c-.1 0-.1.1-.1.1v.2c.1 0 .1.1.1.1s0 .1-.1.1c0 0-.1.1-.1.2l.1.2v.1c0 .2.2.4.3.4l.1.1c.1.1.2.2.3.1h.4c-.2.2-.2.2-.2.1zm-.6 5.3l2 3.6-3.6-2.1-2-3.6 3.6 2.1zm1.8-1.8l2 3.8-3.7-2.2-1.1-2.1h2l.8.5zm0-.5h2.5l1.3 2.4-3.7-2.1-.1-.3zm4.1 10.8l-1.5-.8-1.9-3.5 3.7 2.1.7 1.3c-.1.2-.3.4-.4.6-.3.1-.4.2-.6.3zM41.9 45l3.6 2.1.7 1.2c-.5.2-1.1.2-1.6.2h-.7l-2-3.5zm-4.4-2.4l1.8 3.5-1.8-1.1v-2.4zm0-2.8l2 1.1 1.9 3.6-3.8-2.1-.1-.2v-2.4zm5.7-9.1h-5.7V25h5.7v5.7zm5.7-4.4v.2h-.2c-.2 0-.3.2-.3.2h-.1-.1c-.1.1-.3.4 0 .8.4.7.2.9-.3 1.2-.1.1-.1.1-.1.2 0 .2.2.3.3.4 0 0 0 .2-.2.3-.1.1-.1.2-.1.3v.1c0 .1-.3.2-.4.2-.1 0-.1 0-.2-.1s0-.2 0-.2c.1-.1.2-.4.1-.5 0-.1-.1-.1-.2 0-.2 0-.4 0-.5-.2l-.1.1c-.1.1-.3 0-.4-.1 0 .1-.1.4-.1.6l-.1.2c-.1.2-.3.2-.4.2h-.1c-.1 0-.3.1-.3.1H45v-.1c0-.1-.1-.2-.1-.2v-.1l.1-.1h.2c.1 0 .2-.1.3-.2.1-.2 0-.4-.1-.6-.1-.1-.1-.2 0-.3.1-.1.3-.1.5-.1h.1c-.2-.1-.3-.4-.4-.6-.3.4-.5.5-.7.4 0 0-.1.1-.2.1h-.3c-.1 0-.2 0-.2.1H44v-.1c0-.1 0-.2.1-.3-.1-.2.1-.2.1-.2.1 0 .5-.2.7-.5v-.1l-.9-.2v-.1-.1h-.1s-.1 0-.1-.1 0-.2.1-.3c.2-.3.7 0 1 .1h.1c.2.1.6.1.7-.1v-.2c0-.1 0-.2-.1-.2s-.2 0-.3-.1V26v-.2-.1H45c-.1 0-.2-.1-.2-.1v-.2s.1-.1.1 0c0 0 .1.1 0 .1v.1h.4c.1-.1.2-.1.5-.1h.1s.1-.1.2-.1.3.1.4.1l.3.3v.2c.1 0 .4.2.4.2h-.3c-.1 0-.1.1-.1.1v.2c.1 0 .1.1.1.1s0 .1-.1.1c0 0-.1.1-.1.2l.1.2v.1c0 .2.2.4.3.4l.1.1c.1.1.2.2.3.1h.4s.1-.1.1-.2 0-.3-.1-.3c-.3-.2-.2-.7-.2-.8 0-.1.1-.3.3-.4.2-.1.4-.1.5-.1.1 0 .2.1.3.1-.1.2 0 .2.1.2zm.2 10.3h-5.7V31h5.7v5.6zm-.7.3l.3.7-1.1-.7h.8zm.7 6.1l-1.7-3.1 1.7 1V43zm-5.3-10.3c-.1.1-.1.2-.1.3 0 .1.1.1.1.1h.1v.2l.9.2v.1c-.1.2-.6.5-.7.5-.1 0-.2 0-.3.1-.1.1-.1.2-.1.3v.1l.1-.1s.1-.1.2-.1.1.1.3 0c.1 0 .2-.1.2-.1.2.1.4 0 .7-.4.1.2.2.5.4.6h-.1c-.2 0-.4 0-.5.1v.3c.1.2.1.5.1.6-.1.1-.1.1-.3.2h-.2l-.1.1v.1l.1.2v.1h.1s.2-.1.3-.1h.1c.1 0 .3 0 .4-.2l.1-.2c0-.2.1-.5.1-.6.1 0 .2.1.4.1 0 0 .1 0 .1-.1.1.1.2.2.5.2h.2c.1.1 0 .3-.1.5 0 0-.1.1 0 .2 0 0 .1.1.2.1s.4 0 .4-.2v-.1c0-.1 0-.2.1-.3.2-.2.2-.3.2-.3-.1-.1-.3-.2-.3-.4 0-.1 0-.1.1-.2.5-.3.7-.5.3-1.2-.2-.4-.1-.7 0-.8h.1l.1.1s.1-.2.3-.2h.2v-.2h-.2c-.1 0-.2 0-.3-.1-.1-.1-.3 0-.5.1-.1.1-.2.2-.3.4 0 .1 0 .6.2.8.1.1.1.2.1.3 0 .1 0 .2-.1.2h-.1s-.2-.1-.3 0c-.1 0-.2-.1-.3-.1l.3-.1c-.1-.1-.3-.3-.3-.4v-.1s-.1-.1-.1-.2.1-.2.1-.2c.1 0 .1-.1.1-.1s0-.1-.1-.1v-.1-.1s0-.1.1-.1h.3s-.3-.1-.4-.2v-.1-.1c0-.1-.1-.2-.3-.3 0 0-.3-.1-.4-.1-.1 0-.1 0-.2.1h-.1c-.2 0-.4 0-.5.1h-.3-.1v-.1-.1h-.1s-.1.1 0 .2c0 0 .1.1.2.1h.3v.4c.1.1.2.1.3.1 0 0 .1.1.1.2v.2c-.1.2-.6.1-.7.1h-.1c-.3-.2-.8-.5-1-.2zm-5.9-6c-.1.1-.1.2-.1.3 0 .1.1.1.1.1h.1v.2l.9.2v.1c-.1.2-.6.5-.7.5-.1 0-.2 0-.3.1-.1.1-.1.2-.1.3v.1l.1-.1s.1-.1.2-.1.1.1.3 0c.1 0 .2-.1.2-.1.2.1.4 0 .7-.4.1.2.2.5.4.6h-.1c-.2 0-.4 0-.5.1v.3c.1.2.1.5.1.6-.1.1-.1.1-.3.2h-.2l-.1.1v.1l.1.2v.1h.1s.2-.1.3-.1h.1c.1 0 .3 0 .4-.2l.1-.2c0-.2.1-.5.1-.6.1 0 .2.1.4.1 0 0 .1 0 .1-.1.1.1.2.2.5.2h.2c.1.1 0 .3-.1.5 0 0-.1.1 0 .2 0 0 .1.1.2.1s.4 0 .4-.2v-.1c0-.1 0-.2.1-.3.2-.2.2-.3.2-.3-.1-.1-.3-.2-.3-.4 0-.1 0-.1.1-.2.5-.3.7-.5.3-1.2-.2-.4-.1-.7 0-.8h.2s.1-.2.3-.2h.2v-.2h-.2c-.1 0-.2 0-.3-.1-.1-.1-.3 0-.5.1-.1.1-.2.2-.3.4 0 .1 0 .6.2.8.1.1.1.2.1.3 0 .1 0 .2-.1.2h-.1s-.2-.1-.3 0c-.1 0-.2-.1-.3-.1l-.1-.1c-.1-.1-.3-.3-.3-.4v-.1s-.1-.1-.1-.2.1-.2.1-.2c.1 0 .1-.1.1-.1s0-.1-.1-.1v-.1-.1s0-.1.1-.1h.3s-.3-.1-.4-.2V26v-.1c0-.1-.1-.2-.3-.3 0 0-.3-.1-.4-.1-.1 0-.1 0-.2.1h-.1c-.2 0-.4 0-.5.1h-.3-.1v-.1-.1h-.1s-.1.1 0 .2c0 0 .1.1.2.1h.3v.4c.1.1.2.1.3.1 0 0 .1.1.1.2v.2c-.1.2-.6.1-.7.1h-.1c.1-.1-.5-.4-.6-.1zm-12 12.2c0 .1.1.1.1.1h.1v.2l.9.2v.1c-.1.2-.6.5-.7.5-.1 0-.2 0-.3.1v.4l.1-.1s.1-.1.2-.1h.1c.1.1.1.1.3 0 .1 0 .2-.1.2-.1.2.1.4 0 .7-.4.1.2.2.5.4.6h-.1c-.2 0-.4 0-.5.1v.3c.1.2.1.5.1.6-.1.1-.1.1-.3.2H27l-.1.1v.1l.1.2v.1h.1s.2-.1.3-.1h.1c.1 0 .3 0 .4-.2l.1-.2c0-.2.1-.5.1-.6.1 0 .2.1.4.1 0 0 .1 0 .1-.1.1.1.2.2.5.2h.2c.1.1 0 .3-.1.5 0 0-.1.1 0 .2 0 0 .1.1.2.1s.4 0 .4-.2v-.1c0-.1 0-.2.1-.3.2-.2.2-.3.2-.3-.1-.1-.3-.2-.3-.4 0-.1 0-.1.1-.2.5-.3.7-.5.3-1.2-.2-.4-.1-.7 0-.8h.2s.1-.2.3-.2h.2v-.2h-.2c-.1 0-.2 0-.3-.1-.1-.1-.3 0-.5.1-.1.1-.2.2-.3.4 0 .1 0 .6.2.8.1.1.1.2.1.3 0 .1 0 .2-.1.2h-.1s-.2-.1-.3 0c-.1 0-.2-.1-.3-.1l-.1-.1c-.1-.1-.3-.3-.3-.4v-.1s-.1-.1-.1-.2.1-.2.1-.2c.1 0 .1-.1.1-.1s0-.1-.1-.1v-.1-.1s0-.1.1-.1h.3s-.3-.1-.4-.2v-.1-.1c0-.1-.1-.2-.3-.3 0 0-.3-.1-.4-.1-.1 0-.1 0-.2.1h-.1c-.2 0-.4 0-.5.1h-.3-.1v-.1-.1h-.1s-.1.1 0 .2c0 0 .1.1.2.1h.3v.4c.1.1.2.1.3.1 0 0 .1.1.1.2v.2c-.1.2-.6.1-.7.1h-.1c-.3-.1-.8-.4-1-.1.1.2.1.3.1.3zm33.4-26.3c.3-1-.1-2.1-.5-2.6-.2-.3-.4-.5-.5-.6-.1-.1-.2-.3-.2-.3 0-.2-.2-1.4-.9-2.2-.2-.3-.6-.6-.9-.7-1.1-.4-1.4-.9-1.7-1.3l-.2-.3c-.1-.1-.3-.2-.5-.2s-.3 0-.4.1c0-.1-.8-.5-1.4-.6-.5-.1-.8.2-1.4 0-.7-.3-1-.7-1-.7-.4.3-.1.9-.1 1 .1.2.4.4.5.5.1 0 .1 0 .2.1 0 0-.1 0-.2.1v.2c-.1 0-.2 0-.4.1s-.1.2-.2.3c-.1 0-.3-.1-.3-.1l-.5-.4s-.2 0-.2.2c0 .1-.1.1-.2.1-.2-.1-.2-.1-.4-.1-.3 0-.3 0-.5.1-.4.2-.4.1-.9.2-.6.1-1 .4-1.8.6-.5.1-.9.2-1.5.7-.7.6-1.6.9-2.2 1.8.5.1 1 .2 1.6.5l.1-.1c.1-.1.5-.2.7.1.2 0 .5 0 .9.2.3.2.6.4.8.7.6 0 .6.5.6.5s.9-.7 2.2-1.1c.7-.2 1.9-.2 1.9-.2s1.1-.1 1.7.4c.5.4 1.1.5 1.6.5.7.1.5.2 1 .6.2.1.3.3.5.4l.1.1c.1.1.2.1.4.1.1 1.8 2 2 2 2s.1 0 .1-.1c0 0 0-.1-.1-.1-.4-.2-.7-.5-.8-.9v-.3-.3c.1.1.2.3.3.4.2.6.3.8.6.9h.6s-.2 0-.4-.1c-.1 0-.1-.1-.1-.1-.1-.1-.1-.2-.1-.3v-.2c0-.1-.1-.5-.1-.8.2.2.5.3.8.7.1.1.2.3.2.4v.2c0 .3-.1.6-.2.9-.1.3-.2.4-.2.4v.2h.2l.6-.3c.3-.2.5-.3.6-.6 0-.2.1-.4.2-.7zm-4.9-4.3l.5.2V8c.3 0 .5.2.5.3.1.2 0 .5-.3.6H55c-.1 0-.6.1-.7-.3 0-.1 0-.2.1-.3zm3.4.6l-.1.2s-.2-.2-.5-.3c-.6-.1-1.3.2-1.3.2.1 0 .4-.6.1-1.1-.2-.4-.7-.5-1.2-.6-1.3-.2-1.6-.3-2.2-.7-.7-.5-1-1.3-1-1.5-.1-.3.2-.1.4.2.4.7.6.8 1 1.2.3.2.9.4 2.2.6.6.1 1 .4 1.1.7.1.2.1.4.2.6.1 0 .5.2.7-.4.1-.2.1-.3.1-.3s.3.5.5 1.2zm1.3 3.1c0 .2 0 .4-.1.6-.1.5-.3.8-.9 1.1.1-.3.3-.7.2-1.2 0-.2-.2-.5-.3-.7-.3-.4-.5-.5-.8-.6-.2-.2-.4-.2-.4-.3 0 0 0-.1-.1-.1s-.1.1-.1.1c-.1.1-.3.4-.3 1v.3c.1.3.1.4.3.6-.5-.3-1-.5-1-1.5.4-.1.4-.8.4-1.1.5.2 1 .1 1.4-.1.3-.2.5-.4.6-.6.1.2.3.4.6.8.2.4.5.9.5 1.7zm-.4-4.7c.3-.3.4-.9.4-1.2 0-2-2.5-4.2-5.5-4.7-1-.2-1.9-.2-2.8-.1-1.4.3-2 .8-2.3 1.3-.2.4-.3.7-.3 1 0 .2 0 .3.1.4.2.6.8.7.8.7h.2l-.1-.2c-.3-.4-.2-1 .1-1.5.7-.9 2.2-1.2 3.9-.8C57 3 58 5.3 58.1 5.8c.3 1-.3 1.5-.4 1.6l-.2.2h.2c.5 0 .8-.1 1-.3zM39.2 6c0-1-.7-1.8-1.7-2v-.7c.2 0 1.2.2 1.2.2V2.4s-.9.2-1.2.2c0-.2.3-1.5.3-1.5h-1.3s.2 1.3.3 1.5c-.2 0-1.2-.2-1.2-.2v1.1s1-.2 1.2-.2V4c-1 .2-1.7 1-1.7 2v.4c.2.8.9 1.5 1.6 1.6.2-.1.4-.1.5-.1.1 0 .3 0 .5.1.7-.2 1.5-1 1.5-2zm4.1 3.9c-.1.3-.7 2.5-1.4 4 0 0 0 .2.3.3.2.1.5 0 .5 0 .8-1.6 1.8-3.4 2-3.6-.1-.2-.3-.4-.6-.5-.4-.2-.6-.2-.8-.2zm-1.4 5.2c-.2 0-.4.2-.4.4s.2.4.4.4.4-.2.4-.4-.2-.4-.4-.4zm-2.9-6c-.2.4-.8 2.2-1 4.3.1 0 .2 0 .3.1.1.1.2.3.2.4 0 .1-.1.3-.3.4-.1.1-.1.2-.1.2l.1-.1c.2-.2.4-.3.6-.1.1.1.1.2.1.3 0 .2-.2.4-.3.5-.3.2 0 .5.1.6 0 0 .3.3 0 .6-.1.1-.5.1-.8 0-.1 0-.2 0-.2.1s-.1.3.4.9c.5.6 1.2.6 1.6.6.6-.1 1.1-.3 1.3-.7.1-.1.1-.3.1-.4-.1-.2-.4-.4-.7-.5l-.2-.1c-.1-.2-.2-.3-.2-.5s.1-.3.3-.5c.1-.1.1-.2 0-.4l-.1-.3c0-.1.1-.2.2-.2.2-.1.5-.1.7.1V14.1 14c0-.1.1-.2.2-.3h.2c.6-1.8.8-3.4.9-3.9-1.8-.7-3.1-.7-3.4-.7zm-1.7 5.7c-.2 0-.4.2-.4.4s.2.4.4.4.4-.2.4-.4c0-.3-.2-.4-.4-.4zm-.2-6.1c-.5 0-.9.1-1.2.3.1.3.6 1.8.8 4.5 0 0 .2.2.4.2s.4-.2.4-.2c.2-2.4.6-4.2.7-4.5-.2-.2-.6-.3-1.1-.3zm-5.2 1.1c.1.5.3 2.1.9 3.9h.2c.1 0 .2.2.2.3v.4c.2-.1.5-.2.7-.1.1.1.2.1.2.2l-.1.3c-.1.2-.1.2 0 .4.2.2.3.3.3.5 0 .1-.1.2-.3.3l-.2.1c-.3.1-.6.3-.7.5 0 .1 0 .2.1.4.2.3.7.6 1.3.7.4 0 1 0 1.6-.6.5-.5.5-.8.4-.9-.1-.1-.2-.1-.2-.1-.2.1-.6 0-.7-.1-.1-.2 0-.4.1-.5.2-.1.4-.2.1-.6-.1-.1-.3-.4-.3-.5 0 0 0-.2.1-.2.2-.2.5 0 .7 0 .1 0 .1 0 .1-.1l-.2-.2c-.2 0-.3-.1-.3-.3 0-.1 0-.2.2-.3h.1c-.2-2.1-.8-3.9-1-4.3-.2.1-1.5.1-3.3.8zm.6 5.3c-.2 0-.4.2-.4.4s.2.4.4.4.4-.2.4-.4-.2-.4-.4-.4zm-.3-.9c.2-.1.3-.3.3-.3-.9-2-1.4-3.7-1.4-4-.2 0-.4 0-.8.1-.3.1-.5.3-.6.5.2.2 1.1 1.6 2 3.6 0 .1.2.1.5.1zm14.7 2c-.2 0-.4.2-.4.4s.2.4.4.4.4-.2.4-.4-.1-.4-.4-.4zm-2.1 1.1c-.2-.2-.1-.4.3-.9.4-.4.2-1.1.1-1.5-.1-.2-.1-.4 0-.5.1-.1.3-.2.5-.1.1 0 .2 0 .3.1.1.2.2.6.2.7 0 0 0 .2.1.3h.1c.1 0 .1 0 .2-.2s.2-.4.4-.7c.2-.3.5-.4.8-.4-.7-2-2.1-2.9-2.3-3.1-.4.4-1.3 1.6-2.2 3.1 0 0 .1 0 .1.1s.1.1.1.2c0 .2-.1.3-.3.5l-.1.1h.1l.4.1c.1.1.2.2.2.4s-.1.4-.3.5c-.1 0-.1.1-.1.2s0 .2.1.3v.2c0 .1 0 .2-.1.3-.1.1-.2.1-.4.1s-.3-.2-.4-.3c-.1-.1-.1-.2-.2-.1-.1 0-.1.1-.1.1 0 .2.1.5.5.9.5.5 1.4.7 2.1.5.7-.2 1-.7 1-1 0-.1 0-.1-.1-.1s-.3.1-.3.1c-.1.1-.2.2-.3.2-.3 0-.4 0-.4-.1zm-7.6 3c.3 0 .5-.2.5-.3 0-.1-.2-.3-.5-.3s-.5.2-.5.3c-.1.1.2.3.5.3zm6.6 1.3c-1-.5-3.1-1-6.7-1-3.1 0-5.4.6-6.5 1-.6.3-.8.4-.8.7 0 1.1 3.7 1.7 7.3 1.7 3.5 0 7.2-.6 7.3-1.7 0-.1 0-.4-.6-.7zm-14.2 0s0-.6-.1-1.1c1.6-.7 4.3-1.3 7.8-1.3 3.4 0 6 .5 7.6 1.2-.1.3-.4 1.7 0 1 .1-.1.7-.9.8-1.1.1-.1 0-.3-.1-.4-.2-.2-.8-.4-1.4-.6-1.3-.5-3.4-.9-6.8-.9s-5.2.4-6.7.8c-1.1.3-1.5.4-1.7.6-.2.1-.2.3-.1.4-.1.2.6 1.4.7 1.4zm-2.2-5.4c-.2 0-.4.2-.4.4s.2.4.4.4.4-.2.4-.4c-.1-.2-.2-.4-.4-.4zm-.7-2.1c.2 0 .5.1.8.4.2.3.3.5.4.7.1.2.1.2.2.2h.1c.1-.1.1-.2.1-.3 0-.1 0-.8.4-.8.2 0 .4 0 .5.1.1.1.1.3 0 .5-.2.4-.3 1 .1 1.5.4.4.5.7.3.9-.1.1-.1.1-.2.1s-.3-.1-.3-.2c0 0-.2-.1-.3-.1 0 0-.1 0-.1.1 0 .3.3.8 1 1 .7.2 1.7 0 2.1-.5.4-.4.5-.7.5-.9 0-.1 0-.1-.1-.1s-.1 0-.2.1-.2.2-.4.3c-.2 0-.3-.1-.4-.1-.1-.1-.1-.2-.1-.3v-.2c0-.1.1-.2.1-.3 0-.1 0-.2-.1-.2-.2-.1-.3-.3-.3-.5s.1-.3.2-.4l.4-.1h.1l-.1-.1c-.1-.1-.3-.3-.3-.5 0-.1 0-.1.1-.2l.1-.1c-.9-1.5-1.8-2.7-2.2-3.1-.3.3-1.7 1.2-2.4 3.1zm5.1-5c.6-.2 1.2-.4 1.6-.5-.7-.9-1.5-1.2-2.2-1.8-.5-.5-1-.6-1.5-.7-.7-.2-1.1-.5-1.7-.6-.5-.1-.5 0-.9-.2-.2-.1-.2-.1-.5-.1-.2 0-.3 0-.4.1-.1.1-.2 0-.2-.1-.1-.2-.3-.2-.3-.2l-.5.1s-.2 0-.3.1c-.1-.1 0-.2-.2-.3-.2-.1-.3-.1-.4-.1v-.2c-.1-.1-.2-.1-.2-.1s.1 0 .2-.1c.2-.1.4-.2.5-.5.1-.1.3-.6-.1-1 0 0-.3.4-1 .7-.6.2-1-.1-1.4 0-.6.1-1.4.5-1.4.6-.1 0-.2-.1-.4-.1s-.3.1-.5.2l-.2.3c-.3.4-.6.9-1.7 1.3-.4.2-.7.4-.9.7-.7.9-.9 2.1-.9 2.2 0 0-.1.2-.2.3-.1.2-.3.4-.5.6-.4.5-.8 1.5-.5 2.6.1.3.2.5.4.7l.6.6.6.3h.2v-.1-.1l-.2-.4c-.1-.3-.2-.6-.2-.9v-.2c0-.2.1-.3.2-.4.3-.3.5-.5.8-.7 0 .3-.1.7-.1.8v.2c0 .1 0 .2-.1.3 0 .1-.1.1-.1.1-.5.5-.7.5-.7.5H17.1c.3-.1.4-.3.6-.9.1-.2.2-.3.3-.4v.6c-.1.4-.3.7-.8.9l-.1.1.1.1s1.9-.2 2-2c.1 0 .2-.1.4-.1l.1-.1c.2-.2.4-.3.5-.4.5-.3.3-.5 1-.6.5 0 1.1-.1 1.6-.5.7-.5 1.7-.4 1.7-.4s1.2 0 1.9.2c1.4.4 2.2 1.1 2.2 1.1s0-.5.6-.5c.2-.2.5-.5.8-.7.4-.2.7-.2.9-.2.4-.4.7-.3.9-.1zm-12.7-.8c0-.1.2-.3.5-.3v.5l.5-.2c.1.1.1.2.1.3-.2.4-.6.3-.7.3h-.1c-.3-.1-.4-.3-.3-.6zM17 10.2c.4.2.9.3 1.4.1 0 .3.1.9.4 1.1 0 1-.5 1.2-1 1.5.2-.2.2-.3.3-.6V12c0-.6-.2-.8-.3-1 0 0 0-.1-.1-.1s-.1 0-.1.1-.2.1-.5.3c-.3.1-.5.3-.8.6-.2.2-.3.5-.3.7 0 .5.1.9.2 1.2-.6-.3-.7-.6-.9-1.1-.1-.2-.1-.4-.1-.6 0-.7.3-1.3.5-1.7.2-.3.5-.6.6-.8.2.1.4.4.7.6zM22.9 5c0 .2-.3 1-1 1.5-.6.5-.9.6-2.2.8-.5.1-1 .2-1.2.6-.3.5 0 1.1.1 1.2 0 0-.7-.4-1.3-.2-.3.1-.5.3-.5.3l-.1-.2c.1-.7.4-1.2.4-1.2s0 .1.1.3c.2.6.6.4.7.3.1-.2.1-.4.2-.6.1-.5.6-.8 1.2-.8 1.3-.2 1.9-.4 2.2-.6.4-.3.6-.5 1-1.2.1-.3.5-.5.4-.2zm3.3-.9c0-.1.1-.3.1-.4 0-.3-.1-.7-.3-1-.3-.5-.9-1-2.3-1.3-.8-.2-1.8-.1-2.8.1-3 .6-5.5 2.7-5.5 4.7 0 .2 0 .8.4 1.2.2.2.5.2.8.2h.2l-.2-.2s-.7-.6-.4-1.6c.2-.5 1.2-2.8 4.9-3.6 1.7-.4 3.3 0 3.9.8.4.5.4 1.1.1 1.7l-.1.2h.2c.2-.1.8-.2 1-.8zM179 42.5v-2c-.7 0-1.6-.1-2.2-.2V24.5c-1.8 0-3.8 0-5.3.2v2c.7 0 1.6.1 2.2.2v3.2c-.5-.1-1-.1-1.6-.1-4.1 0-6.5 2.9-6.5 7.1 0 3.5 1.5 5.8 4.5 5.8 1.9 0 3.3-1 3.9-2.3-.1.7-.1 1.5-.1 2.1 1.6.1 3.5 0 5.1-.2zm-5.3-6.2c0 2.1-1 4.1-2.7 4.1-1.4 0-2.1-1.2-2.1-3.5 0-3.1 1.3-4.2 3.1-4.2.5 0 1.1.1 1.7.2v3.4zM159.5 42.7h3.2V34c0-2.2-.9-4-3.7-4-2 0-3.5 1-4.2 2.5.1-.6.2-1.6.2-2.2-1.7 0-3.6 0-5.1.2v2c.7 0 1.6.1 2.2.2v9.9h3.2v-6c0-2.2 1.3-4 2.9-4 1.2 0 1.5.8 1.5 2.1v8h-.2zM110.5 42.7h3.2V24.5c-1.8 0-3.8 0-5.3.2v2c.7 0 1.6.1 2.2.2v15.8h-.1zM93.9 34c0-5.9-3.3-8.2-8.5-8.2-2.1 0-4.1.1-5.4.1v16.7c1.4 0 2.9.1 4.7.1 5.4.1 9.2-2.9 9.2-8.7zm-3.5.3c0 4-2.3 5.8-5.4 5.8-.6 0-1.3 0-1.8-.1V28.6c.5 0 1.2-.1 2-.1 3.8 0 5.2 2.1 5.2 5.8zM107.2 35.6c0-3.1-1.6-5.5-5.2-5.5-3.7 0-5.8 2.8-5.8 6.6 0 4.4 2.2 6.3 6.1 6.3 1.5 0 3.1-.3 4.4-.8l-.3-2.5c-1.1.5-2.4.8-3.6.8-2.3 0-3.4-1.1-3.4-3.4h7.7c.1-.6.1-1.1.1-1.5zm-3.2-.8h-4.5c.2-1.5 1.1-2.5 2.4-2.5 1.3.1 2.2 1 2.1 2.5zM118.7 30.3h-2.2v2.5h2.2v9.9h3.2v-9.9h2.9v-2.5h-2.9v-1c0-1.6.6-2.4 2-2.4.5 0 1 0 1.5.2l.2-2.6c-.6-.1-1.3-.2-2-.2-3.4 0-4.9 1.6-4.9 5v1zM131.4 24.4h-3.2v18.2c1.8 0 3.8 0 5.3-.2v-2c-.7 0-1.6-.1-2.2-.2V24.4h.1zM148.6 42.5v-2c-.7 0-1.6-.1-2.2-.2v-5.9c0-2.7-1.1-4.3-5.1-4.3-1.6 0-3.2.3-4.4.8l.3 2.7c1-.6 2.5-1 3.7-1 1.8 0 2.4.7 2.4 2v.7c-4.2 0-7.1 1.6-7.1 4.5 0 2 1.3 3.3 3.5 3.3 1.8 0 3.4-1 4-2.4-.1.6-.1 1.4-.1 2.1 1.5 0 3.4-.1 5-.3zm-5.4-5c0 1.5-1.1 3-2.6 3-.9 0-1.5-.5-1.5-1.3 0-1 .7-2 4.1-2v.3zM84.5 19.6V14h-1.1v2.2H81V14h-1v5.6h1.1v-2.4h2.4v2.4h1zm5.2-2.2c0-1.4-.8-2.1-1.9-2.1-1.2 0-2.1.9-2.1 2.2 0 1.5.8 2.1 1.9 2.1 1.2 0 2.1-.9 2.1-2.2zm-1.1.1c0 .8-.4 1.3-.9 1.3-.6 0-.9-.4-.9-1.3 0-.8.5-1.2.9-1.2.6 0 .9.4.9 1.2zm5.9-.1c0-1.4-.8-2.1-1.9-2.1-1.2 0-2.1.9-2.1 2.2 0 1.5.8 2.1 1.9 2.1 1.2 0 2.1-.9 2.1-2.2zm-1.1.1c0 .8-.4 1.3-.9 1.3-.6 0-.9-.4-.9-1.3 0-.8.5-1.2.9-1.2.6 0 .9.4.9 1.2zm5.7 2.2v-4.2c-.4-.1-.9-.1-1.5-.1-1.4 0-2.2 1-2.2 2.3 0 1.2.5 1.9 1.5 1.9.5 0 1-.3 1.2-.8v.8c0 .8-.4 1-1.2 1-.4 0-.8-.1-1.2-.2l-.1 1c.4.1.8.2 1.3.2 1.8 0 2.2-1 2.2-1.9zm-1-2.3c0 .7-.3 1.4-.9 1.4-.5 0-.7-.4-.7-1.2 0-1 .4-1.4 1-1.4.2 0 .4 0 .6.1v1.1zm5.9 2.2v-2.9c0-.7-.3-1.3-1.2-1.3-.6 0-1.1.3-1.4.8.1-.2.1-.6.1-.8v-1.8c-.6 0-1.2 0-1.8.1v.7c.2 0 .5 0 .7.1v5.2h1.1v-2c0-.7.4-1.3.9-1.3.4 0 .5.3.5.7v2.6h1.1v-.1zm4.9-2.4c0-1-.5-1.8-1.7-1.8s-1.9.9-1.9 2.2c0 1.4.7 2.1 2 2.1.5 0 1-.1 1.5-.3l-.1-.8c-.4.2-.8.2-1.2.2-.8 0-1.1-.4-1.1-1.1h2.5v-.5zm-1.1-.2h-1.5c.1-.5.4-.8.8-.8.5-.1.7.2.7.8zm5.6.2c0-1-.5-1.8-1.7-1.8s-1.9.9-1.9 2.2c0 1.4.7 2.1 2 2.1.5 0 1-.1 1.5-.3l-.1-.8c-.4.2-.8.2-1.2.2-.8 0-1.1-.4-1.1-1.1h2.5v-.5zm-1-.2h-1.5c.1-.5.4-.8.8-.8.4-.1.7.2.7.8zm8.4 2.6v-2.8c0-.9-.4-1.4-1.2-1.4-.7 0-1.1.4-1.3.8-.1-.4-.4-.8-1.1-.8-.6 0-1.1.3-1.4.8v-.7c-.5 0-1.2 0-1.7.1v.7c.2 0 .5 0 .7.1v3.3h1v-2c0-.8.5-1.3.9-1.3s.5.3.5.7v2.6h1v-2c0-.8.5-1.3.9-1.3s.5.3.5.7v2.6h1.2v-.1zm4-4.2c-.7-.1-1.1.4-1.3.9 0-.3.1-.6.1-.8-.6 0-1.2 0-1.7.1v.7c.2 0 .5 0 .7.1v3.3h1V18c0-1.1.4-1.6 1.2-1.5v-1.1zm4.8 4.1v-.7c-.2 0-.5 0-.7-.1v-2c0-.9-.4-1.4-1.7-1.4-.5 0-1 .1-1.5.2l.1.9c.3-.2.8-.3 1.2-.3.6 0 .8.2.8.7v.2c-1.4 0-2.4.5-2.4 1.5 0 .7.4 1.1 1.2 1.1.6 0 1.1-.3 1.3-.8v.7c.6.1 1.2.1 1.7 0zm-1.7-1.7c0 .5-.4 1-.9 1-.3 0-.5-.2-.5-.5 0-.4.3-.6 1.4-.6v.1zm6.6 1.7v-.7c-.2 0-.5 0-.7-.1v-2c0-.9-.4-1.4-1.7-1.4-.5 0-1 .1-1.5.2l.1.9c.3-.2.8-.3 1.2-.3.6 0 .8.2.8.7v.2c-1.4 0-2.4.5-2.4 1.5 0 .7.4 1.1 1.2 1.1.6 0 1.1-.3 1.3-.8v.7c.6.1 1.2.1 1.7 0zm-1.7-1.7c0 .5-.4 1-.9 1-.3 0-.5-.2-.5-.5 0-.4.3-.6 1.4-.6v.1zm6.9 1.7v-.7c-.2 0-.5 0-.7-.1v-5.2c-.6 0-1.2 0-1.8.1v.7c.2 0 .5 0 .7.1v1.1h-.5c-1.4 0-2.2 1-2.2 2.3 0 1.2.5 1.9 1.5 1.9.6 0 1.1-.3 1.3-.8v.7c.5 0 1.2 0 1.7-.1zm-1.8-2.1c0 .7-.3 1.3-.9 1.3-.5 0-.7-.4-.7-1.2 0-1 .4-1.4 1-1.4.2 0 .4 0 .6.1v1.2zm5.2.9c0-1.3-1.7-1-1.7-1.7 0-.3.2-.4.6-.4.3 0 .5 0 .7.1v-.8c-.2 0-.5-.1-.8-.1-1.2 0-1.7.6-1.7 1.3 0 1.4 1.7 1 1.7 1.7 0 .3-.3.4-.7.4-.3 0-.6-.1-.9-.2l-.1.9c.3.1.6.1.9.1 1.3 0 2-.5 2-1.3zm3.9 1.1l-.1-.9c-.2.1-.5.2-.8.2-.7 0-1-.5-1-1.2 0-.8.3-1.3.9-1.3.3 0 .5.1.8.2l.2-.9c-.3-.1-.6-.1-.9-.1-1.4 0-2.1 1-2.1 2.3 0 1.4.7 2 1.8 2 .5-.1.9-.1 1.2-.3zm4.5.2v-2.9c0-.7-.3-1.3-1.2-1.3-.6 0-1.1.3-1.4.8.1-.2.1-.6.1-.8v-1.8c-.6 0-1.2 0-1.8.1v.7c.2 0 .5 0 .7.1v5.2h1.1v-2c0-.7.4-1.3.9-1.3.4 0 .5.3.5.7v2.6h1.1v-.1zm5.1-.1v-.7c-.2 0-.5 0-.7-.1v-2c0-.9-.4-1.4-1.7-1.4-.5 0-1 .1-1.5.2l.1.9c.3-.2.8-.3 1.2-.3.6 0 .8.2.8.7v.2c-1.4 0-2.4.5-2.4 1.5 0 .7.4 1.1 1.2 1.1.6 0 1.1-.3 1.3-.8v.7c.6.1 1.2.1 1.7 0zm-1.7-1.7c0 .5-.4 1-.9 1-.3 0-.5-.2-.5-.5 0-.4.3-.6 1.4-.6v.1zm6.5-.5c0-1.2-.5-1.9-1.5-1.9-.6 0-1.1.3-1.3.8v-.7c-.5 0-1.2 0-1.7.1v.7c.2 0 .5 0 .7.1v5.3h1v-2h.5c1.6-.1 2.3-1 2.3-2.4zm-1.1.1c0 1-.4 1.4-1 1.4-.2 0-.4 0-.6-.1v-1.1c0-.7.3-1.3.9-1.3.5-.1.7.3.7 1.1zm8-1.9h-1.1l-.7 1.9c-.1.3-.2.6-.2.9l-.3-.9-.7-1.8h-1.2l1.5 4.1h1.1l1.6-4.2zm4.8 4v-.7c-.2 0-.5 0-.7-.1v-2c0-.9-.4-1.4-1.7-1.4-.5 0-1 .1-1.5.2l.1.9c.3-.2.8-.3 1.2-.3.6 0 .8.2.8.7v.2c-1.4 0-2.4.5-2.4 1.5 0 .7.4 1.1 1.2 1.1.6 0 1.1-.3 1.3-.8v.7c.5.1 1.2.1 1.7 0zm-1.8-1.7c0 .5-.4 1-.9 1-.3 0-.5-.2-.5-.5 0-.4.3-.6 1.4-.6v.1zm6.4 1.8v-2.9c0-.7-.3-1.3-1.2-1.3-.7 0-1.1.3-1.4.8 0-.2.1-.5.1-.7-.6 0-1.2 0-1.7.1v.7c.2 0 .5 0 .7.1v3.3h1v-2c0-.7.4-1.3 1-1.3.4 0 .5.3.5.7v2.6h1v-.1z" class="st0"/>
</svg>
