<svg width="794" height="123" viewBox="0 0 794 123" fill="none" xmlns="http://www.w3.org/2000/svg">
    <path d="M95.6925 116.312H77.1314L63.52 74.9313C61.8701 69.4974 60.2202 64.4815 58.9828 58.2117C57.333 65.3175 55.6831 71.5874 53.6208 78.2752L41.6592 116.312H23.9231L0 37.3123H18.561L28.8727 74.0953C30.9351 81.6191 32.9974 89.1429 34.6473 96.2487C36.2971 88.3069 38.3595 81.6191 40.0093 74.5133L51.9709 37.3123H68.8821L80.8436 74.0953C83.7309 83.709 85.3808 89.5609 87.0306 96.2487C88.6805 88.7249 90.3304 82.8731 92.3927 74.9313L103.117 37.7302H120.441L95.6925 116.312Z" fill="#242D5F"/>
    <path d="M174.06 116.312C174.06 111.296 174.06 105.862 174.885 101.682C171.173 110.878 161.273 117.984 148.899 117.984C135.7 117.984 127.039 109.624 127.039 96.6665C127.039 78.693 144.775 68.6613 173.235 68.6613V64.0634C173.235 54.0316 169.11 49.0158 156.736 49.0158C149.312 49.0158 140.238 51.5237 134.051 54.8676L131.576 41.074C139.413 38.148 149.312 36.0581 159.211 36.0581C183.134 36.0581 189.734 46.5078 189.734 62.8094V103.354C193.446 104.19 198.808 104.608 203.345 105.026V115.476C194.683 116.312 183.134 117.148 174.06 116.312ZM172.822 79.947C149.312 79.947 143.125 86.6348 143.125 94.1586C143.125 100.428 147.249 104.608 153.849 104.608C165.398 104.608 172.822 93.3226 172.822 82.0369V79.947Z" fill="#242D5F"/>
    <path d="M242.53 117.984C226.031 117.984 220.669 111.296 220.669 93.7408V50.6879H205.82V37.3122H220.669V12.2329L237.58 7.63501V37.3122H257.791V50.6879H237.58V88.7249C237.58 100.429 240.055 103.773 247.892 103.773C251.192 103.773 254.491 103.355 257.379 102.519L258.616 116.312C254.491 117.148 247.892 117.984 242.53 117.984Z" fill="#242D5F"/>
    <path d="M336.986 78.2753H287.49C287.077 96.2488 294.502 104.191 310.588 104.191C318.012 104.191 325.849 102.519 332.861 99.5927L334.924 112.968C326.674 116.312 317.187 117.984 307.288 117.984C283.365 117.984 269.754 105.445 269.754 77.4393C269.754 53.6139 282.953 35.6404 305.638 35.6404C327.912 35.6404 337.398 50.688 337.398 68.6615C337.398 71.1694 337.398 74.9313 336.986 78.2753ZM305.226 48.598C295.739 48.598 289.14 55.7039 287.902 66.5716H320.9C320.9 55.7039 315.125 48.598 305.226 48.598Z" fill="#242D5F"/>
    <path d="M401.743 52.7778C385.244 49.4339 377.82 60.7196 377.82 84.545V116.73H361.321V50.6879C357.609 49.8519 352.247 49.4339 347.71 49.0159V38.5662C356.372 37.7302 367.921 36.8942 377.407 37.3122C377.407 41.9101 376.582 48.5979 375.757 54.8677H376.17C379.47 44.418 387.307 34.3863 402.568 36.0582L401.743 52.7778Z" fill="#242D5F"/>
    <path d="M647.986 78.2753H598.49C598.077 96.2488 605.502 104.191 621.588 104.191C629.012 104.191 636.849 102.519 643.861 99.5927L645.924 112.968C637.674 116.312 628.187 117.984 618.288 117.984C594.365 117.984 580.754 105.445 580.754 77.4393C580.754 53.6139 593.953 35.6404 616.638 35.6404C638.912 35.6404 648.398 50.688 648.398 68.6615C648.811 71.1694 648.398 74.9313 647.986 78.2753ZM616.226 48.598C606.739 48.598 600.14 55.7039 598.902 66.5716H631.9C632.312 55.7039 626.125 48.598 616.226 48.598Z" fill="#242D5F"/>
    <path d="M712.744 52.7778C696.246 49.4339 688.821 60.7196 688.821 84.545V116.73H672.322V50.6879C668.61 49.8519 663.248 49.4339 658.711 49.0159V38.5662C667.373 37.7302 678.922 36.8942 688.409 37.3122C688.409 41.9101 687.584 48.5979 686.759 54.8677H687.171C690.471 44.418 698.308 34.3863 713.569 36.0582L712.744 52.7778Z" fill="#242D5F"/>
    <path d="M772.964 116.312L746.154 76.1852V116.312H729.243V13.4868C725.53 12.6509 720.168 12.2329 715.631 11.8149V1.36514C724.293 0.529166 735.842 -0.306809 746.154 0.11118V71.1693L771.314 37.3122H791.938L763.065 73.2593L794 116.312H772.964Z" fill="#242D5F"/>
    <path d="M563.018 59.4656L558.068 64.4815C555.181 67.4074 550.644 67.4074 547.756 64.8995C539.919 57.3757 530.433 49.0159 525.071 45.254C523.833 44.418 522.596 44.418 521.771 45.254C518.883 47.3439 515.171 50.6878 512.696 52.7778C502.385 61.9735 498.26 65.3174 493.723 65.3174C489.186 65.3174 485.061 61.5555 475.574 53.6137C472.687 51.1058 468.15 46.9259 464.85 44.836C464.025 44 462.375 44 461.551 44.836C456.601 48.1799 447.114 56.9577 439.69 64.4815C436.802 67.4074 432.265 67.4074 429.378 64.4815L424.016 59.4656C449.176 33.9683 457.013 28.9524 463.2 28.9524C468.975 28.9524 474.749 33.9683 485.061 42.746C487.124 44.418 489.598 46.9259 491.661 48.5979C492.898 49.4339 494.135 49.4339 495.373 48.5979C497.848 46.5079 500.735 44 503.21 41.9101C514.346 32.2963 518.471 28.9524 523.008 28.9524C527.958 28.9524 536.207 34.3862 563.018 59.4656Z" fill="#D6EAFA"/>
    <path d="M523.421 123C518.884 123 514.347 119.656 503.623 110.042C501.148 107.952 498.26 105.445 495.786 103.355C494.548 102.519 493.311 102.519 492.073 103.355C490.011 105.027 487.536 107.534 485.474 109.206C475.162 117.984 469.388 123 463.613 123C457.426 123 449.589 117.984 424.429 92.4869L429.791 87.471C432.678 84.5451 437.215 84.5451 440.103 87.471C447.527 94.9948 457.014 103.773 461.963 107.116C462.788 107.952 464.438 107.952 465.263 107.116C468.563 105.027 472.687 100.847 475.987 98.3387C485.061 90.3969 489.186 86.635 494.136 86.635C498.673 86.635 502.798 89.9789 513.109 99.1747C515.584 101.265 519.296 104.609 522.184 106.698C523.008 107.534 524.658 107.534 525.483 106.698C530.845 102.937 540.332 94.5768 548.169 87.053C551.056 84.1271 555.593 84.5451 558.481 87.471L563.43 92.4869C536.207 117.984 527.958 123 523.421 123Z" fill="#206DB5"/>
</svg>